<svg version="1.1" id="Layer_1" xmlns="http://www.w3.org/2000/svg" xmlns:xlink="http://www.w3.org/1999/xlink" x="0px" y="0px"
	 viewBox="0 0 180 180" style="enable-background:new 0 0 180 180;" xml:space="preserve">
<style type="text/css">
	.st0{fill:#46B973;}
	.st1{fill:#196775;}
	.st2{fill:#FDAF3F;}
</style>
<g>
	<g>

			<rect x="83.4" y="75" transform="matrix(0.4687 -0.8834 0.8834 0.4687 -53.638 138.1423)" class="st0" width="9.2" height="77.4"/>
		<path class="st0" d="M144.3,141.4l-1.3-9.1c8.1-1.2,17-6.9,17.5-16.6c0-0.3,0-0.7,0-1s0-0.7,0-1c-0.3-5.6-3.7-10.7-9.3-13.8
			c-7-4-15.8-4.1-22.9-0.3l-4.3-8.1c9.8-5.2,22-5.1,31.7,0.4c8.3,4.7,13.4,12.5,13.9,21.3c0,0.5,0,1,0,1.5s0,1,0,1.5
			C168.9,129,158.5,139.4,144.3,141.4z"/>
		<path class="st0" d="M40.6,141.8c-1.2,0-2.4-0.1-3.6-0.2l1-9.1c4.8,0.5,9.5-0.4,13.7-2.6L56,138C51.2,140.5,46,141.8,40.6,141.8z"
			/>
		<g>
			<path class="st1" d="M60.9,166.1c-4,0-7.6-2.2-9.4-6l-0.1-0.2L20.7,84.6l-0.1-0.3c-1.4-5.9-0.4-12.1,2.8-17.2
				c3.2-5.2,8.2-8.8,14.2-10.2c5.9-1.4,12.1-0.4,17.2,2.8c5.2,3.2,8.8,8.2,10.2,14.2l0.1,0.7l6.4,80.9c0.1,5.1-3.1,9.3-8.1,10.5
				C62.6,166,61.7,166.1,60.9,166.1z M59.8,156.2c0.3,0.6,0.8,0.8,1.5,0.7c0.7-0.2,1-0.6,1.1-1.3L56,75.5c-0.9-3.4-3-6.3-6-8.1
				c-3.1-1.9-6.8-2.5-10.3-1.7c-3.5,0.8-6.6,3-8.5,6.1c-1.9,3-2.5,6.5-1.7,10L59.8,156.2z"/>
			<path class="st1" d="M116.5,166.1c-0.8,0-1.7-0.1-2.6-0.3c-5-1.2-8.2-5.4-8.1-10.5l0-0.3l6.4-81l0.1-0.3c1.4-5.9,5-11,10.2-14.2
				c5.2-3.2,11.3-4.2,17.2-2.8c5.9,1.4,11,5,14.2,10.2c3.2,5.2,4.2,11.3,2.8,17.2l-0.2,0.7L125.9,160
				C124.1,163.8,120.5,166.1,116.5,166.1z M115,155.6c0,0.7,0.4,1.1,1.1,1.3c0.7,0.2,1.2-0.1,1.5-0.7l30.3-74.4
				c0.7-3.4,0.1-7-1.7-10c-1.9-3.1-4.9-5.3-8.5-6.1c-3.5-0.8-7.2-0.3-10.3,1.7c-3,1.9-5.1,4.7-6,8.1L115,155.6z"/>
			<path class="st1" d="M32.5,50c-9.9,0-18-8.1-18-18s8.1-18,18-18c9.9,0,18,8.1,18,18S42.4,50,32.5,50z M32.5,23.1
				c-4.9,0-8.8,4-8.8,8.8s4,8.8,8.8,8.8s8.8-4,8.8-8.8S37.4,23.1,32.5,23.1z"/>
			<path class="st1" d="M145,50c-9.9,0-18-8.1-18-18s8.1-18,18-18s18,8.1,18,18S154.9,50,145,50z M145,23.1c-4.9,0-8.8,4-8.8,8.8
				s4,8.8,8.8,8.8s8.8-4,8.8-8.8S149.9,23.1,145,23.1z"/>
		</g>
		<g>
			<path class="st2" d="M102.6,115.2c4.4-8.1,0.8-18.6-7.8-21.7c-1.7-0.6-3.6-1-5.6-1c-0.3,0-0.6,0-1,0c-10.8,0.6-17.1,12.7-12,22.4
				l9.8,18.9c1.4,2.6,5.1,2.7,6.5,0.1L102.6,115.2z"/>
			<path class="st2" d="M90,87.9c-8.1,0-14.8-6.6-14.8-14.8S81.9,58.3,90,58.3c8.1,0,14.8,6.6,14.8,14.8S98.1,87.9,90,87.9z"/>
		</g>
		<path class="st0" d="M37.1,141.6c-14.7-1.5-25.9-12.2-26.7-25.3c0-0.5,0-1,0-1.5s0-1,0-1.5c0.5-8.8,5.6-16.6,13.9-21.3
			c9.7-5.5,21.9-5.6,31.7-0.4l-4.3,8.1c-7.1-3.8-15.9-3.6-22.9,0.3c-5.6,3.1-8.9,8.2-9.3,13.8c0,0.3,0,0.7,0,1s0,0.7,0,1
			c0.6,9.8,9.7,15.8,18.5,16.7L37.1,141.6z"/>

			<rect x="52.5" y="123.9" transform="matrix(0.8834 -0.4687 0.4687 0.8834 -52.7363 45.0227)" class="st0" width="23.2" height="9.2"/>

			<rect x="103.3" y="96.6" transform="matrix(0.8834 -0.4687 0.4687 0.8834 -33.9764 65.9132)" class="st0" width="24.3" height="9.2"/>
		<path class="st0" d="M139.4,141.8c-5.4,0-10.6-1.3-15.3-3.8l-4-2.1l4.3-8.1l4,2.1c4.4,2.4,9.5,3.2,14.6,2.5l1.3,9.1
			C142.6,141.7,141,141.8,139.4,141.8z"/>

			<rect x="72.4" y="110.4" transform="matrix(0.8834 -0.4687 0.4687 0.8834 -43.4462 55.3681)" class="st0" width="34.3" height="9.2"/>
	</g>
</g>
</svg>
