<?xml version="1.0" standalone="no"?>
<!DOCTYPE svg PUBLIC "-//W3C//DTD SVG 20010904//EN"
 "http://www.w3.org/TR/2001/REC-SVG-20010904/DTD/svg10.dtd">
<svg version="1.0" xmlns="http://www.w3.org/2000/svg"
 width="1000.000000pt" height="1000.000000pt" viewBox="0 0 1000.000000 1000.000000"
 preserveAspectRatio="xMidYMid meet">
<metadata>
Created by potrace 1.11, written by Peter Selinger 2001-2013
</metadata>
<g transform="translate(0.000000,1000.000000) scale(0.100000,-0.100000)"
fill="#000000" stroke="none">
<path d="M1729 9216 c-2 -2 -29 -6 -59 -10 -87 -9 -197 -43 -297 -92 -51 -25
-98 -50 -105 -57 -7 -7 -31 -25 -54 -40 -68 -46 -173 -157 -229 -242 -86 -131
-135 -254 -161 -407 -10 -58 -10 -229 -1 -303 17 -123 82 -288 162 -410 51
-77 193 -219 270 -270 392 -259 896 -220 1240 97 322 297 413 779 220 1172
-143 290 -404 487 -730 551 -34 7 -251 16 -256 11z m219 -530 c111 -29 205
-98 273 -199 128 -192 103 -451 -58 -613 -191 -192 -491 -196 -686 -10 -240
231 -184 627 111 784 110 59 232 71 360 38z"/>
<path d="M7969 9216 c-2 -2 -26 -6 -54 -10 -349 -42 -683 -321 -799 -667 -223
-663 282 -1344 980 -1323 470 14 862 350 954 818 18 88 20 231 5 327 -18 112
-20 121 -51 203 -73 194 -210 369 -380 482 -166 111 -327 162 -530 169 -67 2
-123 3 -125 1z m246 -535 c82 -29 143 -68 201 -127 161 -168 183 -414 53 -609
-174 -260 -533 -292 -755 -68 -187 189 -183 495 8 685 69 69 176 125 254 135
27 3 51 7 52 8 11 10 139 -7 187 -24z"/>
<path d="M7405 6869 c-115 -10 -173 -19 -201 -29 -13 -5 -24 -8 -24 -5 0 8
-203 -66 -264 -97 -199 -99 -392 -273 -505 -453 -63 -100 -141 -281 -157 -358
-2 -10 -5 -26 -8 -35 -3 -9 -8 -55 -11 -102 -8 -117 -14 -195 -20 -260 -2 -30
-7 -91 -10 -135 -3 -44 -8 -96 -10 -115 -2 -19 -7 -80 -10 -135 -4 -55 -8
-111 -10 -125 -2 -14 -7 -68 -10 -120 -4 -52 -8 -111 -10 -130 -8 -82 -18
-226 -17 -242 1 -19 -18 -32 -163 -108 -55 -29 -124 -66 -153 -82 -30 -16 -55
-28 -56 -26 -2 2 -20 37 -42 78 -72 142 -148 230 -268 312 -138 95 -283 139
-470 143 -136 3 -235 -15 -349 -64 -157 -68 -314 -221 -397 -389 -29 -59 -32
-61 -53 -48 -12 7 -74 40 -137 74 -121 63 -314 164 -317 166 -1 1 -4 33 -7 71
-4 39 -8 90 -10 115 -3 25 -7 81 -11 125 -3 44 -8 109 -11 145 -2 36 -7 88 -9
115 -2 28 -7 86 -10 130 -3 44 -8 100 -10 125 -2 25 -7 86 -10 135 -4 50 -8
101 -10 115 -2 14 -6 68 -10 120 -8 110 -24 182 -66 289 -157 397 -502 685
-932 778 -117 26 -391 25 -502 -1 -341 -79 -587 -241 -782 -514 -149 -209
-223 -433 -229 -697 -5 -210 11 -286 108 -523 44 -109 84 -207 88 -219 8 -19
4 -25 -28 -44 -209 -127 -411 -334 -531 -543 -82 -144 -152 -352 -168 -505
-10 -87 -10 -290 0 -366 16 -133 70 -312 130 -430 28 -56 105 -184 117 -195 3
-3 24 -30 46 -60 227 -302 651 -546 1059 -609 39 -6 90 -14 115 -18 25 -3 123
-7 219 -7 l175 -1 57 -140 c31 -77 91 -225 134 -330 42 -104 106 -260 140
-345 92 -227 98 -239 148 -307 105 -142 263 -223 442 -228 43 -1 97 2 120 7
22 6 51 12 65 14 70 13 194 87 265 159 63 62 124 173 141 255 21 100 22 118
10 270 -4 52 -9 118 -11 145 -2 28 -6 84 -10 125 -3 41 -8 104 -10 140 -3 36
-7 84 -10 106 -2 23 -7 81 -10 130 -4 49 -8 105 -10 124 -2 19 -6 80 -10 135
-3 55 -8 111 -10 125 -2 14 -7 71 -10 127 l-7 102 49 24 c26 13 73 37 103 54
30 16 105 56 165 88 61 32 139 74 175 93 36 19 84 45 108 58 38 21 43 21 51 6
34 -65 120 -230 186 -356 42 -83 88 -164 101 -182 60 -78 200 -94 278 -33 33
26 54 59 134 209 73 138 192 358 208 385 13 20 18 18 194 -77 36 -19 119 -63
185 -98 196 -104 180 -92 179 -136 -1 -39 -11 -187 -19 -274 -7 -69 -15 -178
-20 -250 -3 -36 -7 -90 -10 -120 -5 -62 -12 -153 -20 -250 -2 -36 -7 -94 -10
-130 -3 -36 -7 -90 -9 -120 -9 -119 -18 -236 -20 -257 -4 -38 13 -155 30 -207
45 -133 155 -260 283 -324 238 -120 504 -80 688 104 40 40 73 79 73 85 0 7 6
20 14 28 8 9 35 68 61 131 25 63 55 134 66 157 10 24 19 46 19 49 0 3 6 20 14
37 8 18 49 115 90 217 41 102 103 255 138 340 72 175 51 159 188 144 90 -10
321 -10 405 0 139 16 320 57 440 101 625 229 1033 762 1038 1358 1 109 -9 272
-18 287 -2 4 -7 20 -9 36 -12 63 -16 81 -36 144 -33 102 -132 297 -199 387
-127 173 -280 311 -477 429 -58 34 -109 64 -115 66 -7 2 16 72 59 178 100 246
107 281 107 495 0 158 -6 205 -39 330 -54 205 -174 412 -331 568 -215 214
-491 340 -795 363 -41 3 -79 6 -85 8 -5 1 -46 -1 -90 -5z m-4785 -548 c52 -18
127 -52 166 -76 187 -117 323 -321 339 -510 10 -122 14 -174 20 -245 3 -36 8
-94 10 -130 3 -36 7 -92 10 -125 23 -281 27 -355 20 -355 -5 0 -51 22 -104 49
-171 87 -403 156 -611 180 -121 15 -416 6 -525 -15 -157 -30 -134 -49 -227
181 l-81 200 0 125 c0 101 4 139 22 200 62 206 189 366 366 465 120 66 239 93
390 90 93 -2 125 -8 205 -34z m5030 20 c269 -72 454 -238 544 -489 33 -91 37
-117 41 -224 4 -121 -5 -159 -87 -361 -61 -150 -74 -176 -90 -172 -85 28 -469
27 -613 0 -49 -9 -94 -18 -100 -19 -194 -48 -332 -103 -568 -230 l-108 -58 5
48 c3 27 8 85 11 129 12 172 15 222 20 265 2 25 7 79 10 120 3 41 8 100 10
130 2 30 7 87 10 125 3 39 8 97 11 130 24 286 299 565 604 612 19 3 37 7 38 8
9 8 222 -4 262 -14z m-5190 -1745 c58 -13 130 -27 135 -27 17 2 194 -68 270
-106 112 -56 358 -187 374 -199 1 -1 4 -20 6 -41 11 -135 15 -187 21 -263 3
-47 7 -101 9 -120 2 -19 6 -75 10 -125 3 -49 8 -108 10 -130 3 -22 7 -78 11
-125 3 -47 7 -103 9 -125 7 -67 18 -238 19 -278 1 -38 0 -38 -84 -83 -403
-214 -482 -254 -491 -248 -4 2 -14 23 -22 47 -8 23 -47 121 -87 217 -39 96
-94 231 -122 300 -46 114 -65 160 -89 215 -5 11 -49 119 -97 240 -125 308
-257 633 -303 743 -27 65 -35 94 -26 97 59 20 369 28 447 11z m5411 8 c5 -3
-161 -424 -220 -559 -5 -11 -28 -67 -51 -125 -23 -58 -48 -119 -56 -137 -8
-17 -14 -34 -14 -37 0 -3 -11 -29 -24 -58 -13 -29 -72 -172 -131 -318 -59
-146 -115 -283 -125 -305 -9 -22 -39 -95 -65 -161 -39 -97 -52 -121 -65 -115
-15 6 -218 113 -360 190 -41 22 -108 58 -148 78 l-73 38 6 100 c11 166 23 312
30 390 2 22 7 78 10 125 3 47 8 105 10 130 2 25 7 78 10 118 11 156 17 217 21
223 2 4 23 17 46 29 24 12 84 44 133 70 50 26 135 71 190 100 282 150 397 193
582 219 59 8 283 12 294 5z m660 -244 c407 -297 512 -817 247 -1231 -131 -205
-401 -386 -686 -460 -80 -21 -96 -24 -197 -36 -64 -7 -253 -8 -261 -1 -3 4
163 423 195 493 9 19 327 798 476 1167 l67 166 50 -27 c27 -15 76 -47 109 -71z
m-6975 -45 c20 -46 275 -672 371 -910 46 -115 90 -223 98 -240 7 -16 28 -66
45 -110 17 -44 38 -93 45 -110 48 -109 124 -309 120 -316 -3 -4 -11 -6 -18 -4
-7 2 -48 6 -93 9 -97 7 -257 46 -357 87 -418 172 -666 496 -670 874 -2 210 36
343 149 517 39 60 207 238 224 238 4 0 18 9 31 21 l24 20 9 -23 c5 -13 15 -36
22 -53z m2466 -464 l156 -83 17 -50 c9 -28 32 -82 52 -120 19 -39 31 -73 27
-78 -5 -5 -54 -32 -109 -61 -55 -29 -149 -79 -209 -111 -60 -32 -113 -58 -118
-58 -4 0 -9 17 -9 38 -2 38 -3 49 -13 182 -10 126 -16 203 -21 245 -2 22 -7
82 -10 133 l-6 93 43 -24 c24 -13 114 -61 200 -106z m2062 12 c-2 -16 -6 -64
-10 -108 -3 -44 -7 -96 -9 -115 -2 -19 -6 -78 -10 -130 -3 -52 -8 -104 -10
-115 -2 -11 -4 -23 -4 -27 -1 -7 -42 14 -273 137 l-76 41 23 49 c13 28 33 70
43 95 18 42 27 49 123 100 57 29 122 64 144 76 53 30 63 30 59 -3z m736 -1496
c63 -33 116 -61 118 -62 2 -1 -86 -223 -130 -325 -5 -14 -70 -171 -142 -349
-150 -368 -155 -378 -223 -345 l-38 19 1 80 c1 79 11 247 19 315 2 19 7 73 10
120 3 47 8 105 10 130 2 25 7 79 10 120 3 41 8 95 10 120 2 25 7 88 11 140 4
52 8 106 9 120 2 14 3 40 4 58 l1 34 108 -58 c59 -31 159 -84 222 -117z
m-3431 46 c1 -27 4 -64 6 -83 2 -19 6 -80 10 -134 4 -55 9 -111 10 -125 2 -14
6 -69 10 -121 4 -52 8 -111 10 -130 2 -19 7 -80 10 -135 4 -55 9 -111 11 -125
1 -14 6 -71 9 -128 8 -119 -2 -146 -56 -154 -53 -8 -71 20 -164 252 -48 118
-93 229 -100 245 -7 17 -53 128 -102 249 l-89 218 196 100 c107 54 199 103
205 109 20 20 32 7 34 -38z"/>
<path d="M4931 6748 c-214 -23 -405 -121 -541 -279 -217 -252 -264 -598 -120
-894 50 -105 125 -202 208 -271 167 -139 334 -196 552 -190 136 4 142 5 239
37 212 71 394 235 489 441 63 138 88 354 57 499 -77 359 -375 629 -724 655
-36 3 -70 7 -76 8 -5 1 -44 -2 -84 -6z"/>
</g>
</svg>
